<?xml version="1.0" encoding="UTF-8" standalone="no"?>
<svg
   height="100"
   width="100"
   version="1.1"
   viewBox="0 0 100 100"
   id="svg8"
   sodipodi:docname="budgie-desktop-symbolic.svg"
   inkscape:version="1.1.1 (3bf5ae0d25, 2021-09-20)"
   xmlns:inkscape="http://www.inkscape.org/namespaces/inkscape"
   xmlns:sodipodi="http://sodipodi.sourceforge.net/DTD/sodipodi-0.dtd"
   xmlns="http://www.w3.org/2000/svg"
   xmlns:svg="http://www.w3.org/2000/svg"
   xmlns:rdf="http://www.w3.org/1999/02/22-rdf-syntax-ns#"
   xmlns:cc="http://creativecommons.org/ns#"
   xmlns:dc="http://purl.org/dc/elements/1.1/">
  <defs
     id="defs12" />
  <sodipodi:namedview
     id="namedview10"
     pagecolor="#ffffff"
     bordercolor="#666666"
     borderopacity="1.0"
     inkscape:pageshadow="2"
     inkscape:pageopacity="0.0"
     inkscape:pagecheckerboard="0"
     showgrid="false"
     inkscape:zoom="2.7695313"
     inkscape:cx="-70.589561"
     inkscape:cy="100.19746"
     inkscape:window-width="1881"
     inkscape:window-height="890"
     inkscape:window-x="39"
     inkscape:window-y="32"
     inkscape:window-maximized="1"
     inkscape:current-layer="svg8" />
  <title
     id="title2">Budgie symbolic icon</title>
  <metadata
     id="metadata4">
    <rdf:RDF>
      <cc:Work
         rdf:about="">
        <dc:format>image/svg+xml</dc:format>
        <dc:type
           rdf:resource="http://purl.org/dc/dcmitype/StillImage" />
        <dc:title>Budgie symbolic icon</dc:title>
        <dc:creator>
          <cc:Agent>
            <dc:title>Yuri Henrique</dc:title>
          </cc:Agent>
        </dc:creator>
        <dc:contributor>
          <cc:Agent>
            <dc:title>HEXcube</dc:title>
          </cc:Agent>
        </dc:contributor>
        <dc:description>Symbolic icon for Budgie desktop environment</dc:description>
        <cc:license
           rdf:resource="http://creativecommons.org/licenses/by-sa/4.0/" />
      </cc:Work>
    </rdf:RDF>
  </metadata>
  <path
     fill="#bebebe"
     d="M 50,0 A 50,50 0 0 0 0,50 50,50 0 0 0 50,100 50,50 0 0 0 100,50 50,50 0 0 0 50,0 m 11.1875,26.4375 c 0.9375,0 1.9375,0.0625 2.875,0.125 5.625,0.6875 11.1875,2.8125 14.875,7.0625 2.5625,2.75 4.1875,6.5 4.6875,10.1875 L 88.3125,45.375 84,48.125 c 0.6875,7.25 -2.75,14.8125 -7.4375,20.3125 -4.5,5.375 -10.4375,8.375 -17.1875,10.125 -9.75,2.5 -21,1.1875 -29.6875,-4.3125 C 24.625,70.75 20.125,65.5625 17.5625,59.375 15.5,53.25 15.375,47.125 16.375,41 c 1,3.5 3.9375,6.4375 7.4375,7.4375 3.5,1 7.9375,0.5 10.5625,-1.9375 5.5625,-5.1875 8.6875,-12.75 14.875,-16.8125 3.5625,-2.5625 7.75,-3.25 11.9375,-3.25"
     id="path6"
     style="stroke-width:6.25" />
</svg>
